<svg width="156" height="25" viewBox="0 0 156 25" fill="none" xmlns="http://www.w3.org/2000/svg">
<path d="M0.0227273 24V0.727272H9.20455C10.9697 0.727272 12.4735 1.06439 13.7159 1.73864C14.9583 2.4053 15.9053 3.33333 16.5568 4.52273C17.2159 5.70454 17.5455 7.06818 17.5455 8.61364C17.5455 10.1591 17.2121 11.5227 16.5455 12.7045C15.8788 13.8864 14.9129 14.8068 13.6477 15.4659C12.3902 16.125 10.8674 16.4545 9.07955 16.4545H3.22727V12.5114H8.28409C9.23106 12.5114 10.0114 12.3485 10.625 12.0227C11.2462 11.6894 11.7083 11.2311 12.0114 10.6477C12.322 10.0568 12.4773 9.37879 12.4773 8.61364C12.4773 7.84091 12.322 7.16667 12.0114 6.59091C11.7083 6.00757 11.2462 5.55682 10.625 5.23864C10.0038 4.91288 9.21591 4.75 8.26136 4.75H4.94318V24H0.0227273ZM25.1591 24.3295C24.0455 24.3295 23.053 24.1364 22.1818 23.75C21.3106 23.3561 20.6212 22.7765 20.1136 22.0114C19.6136 21.2386 19.3636 20.2765 19.3636 19.125C19.3636 18.1553 19.5417 17.3409 19.8977 16.6818C20.2538 16.0227 20.7386 15.4924 21.3523 15.0909C21.9659 14.6894 22.6629 14.3864 23.4432 14.1818C24.2311 13.9773 25.0568 13.8333 25.9205 13.75C26.9356 13.6439 27.7538 13.5455 28.375 13.4545C28.9962 13.3561 29.447 13.2121 29.7273 13.0227C30.0076 12.8333 30.1477 12.553 30.1477 12.1818V12.1136C30.1477 11.3939 29.9205 10.8371 29.4659 10.4432C29.0189 10.0492 28.3826 9.85227 27.5568 9.85227C26.6856 9.85227 25.9924 10.0455 25.4773 10.4318C24.9621 10.8106 24.6212 11.2879 24.4545 11.8636L19.9773 11.5C20.2045 10.4394 20.6515 9.52273 21.3182 8.75C21.9848 7.9697 22.8447 7.37121 23.8977 6.95454C24.9583 6.5303 26.1856 6.31818 27.5795 6.31818C28.5492 6.31818 29.4773 6.43182 30.3636 6.65909C31.2576 6.88636 32.0492 7.23864 32.7386 7.71591C33.4356 8.19318 33.9848 8.80682 34.3864 9.55682C34.7879 10.2992 34.9886 11.1894 34.9886 12.2273V24H30.3977V21.5795H30.2614C29.9811 22.125 29.6061 22.6061 29.1364 23.0227C28.6667 23.4318 28.1023 23.7538 27.4432 23.9886C26.7841 24.2159 26.0227 24.3295 25.1591 24.3295ZM26.5455 20.9886C27.2576 20.9886 27.8864 20.8485 28.4318 20.5682C28.9773 20.2803 29.4053 19.8939 29.7159 19.4091C30.0265 18.9242 30.1818 18.375 30.1818 17.7614V15.9091C30.0303 16.0076 29.822 16.0985 29.5568 16.1818C29.2992 16.2576 29.0076 16.3295 28.6818 16.3977C28.3561 16.4583 28.0303 16.5152 27.7045 16.5682C27.3788 16.6136 27.0833 16.6553 26.8182 16.6932C26.25 16.7765 25.7538 16.9091 25.3295 17.0909C24.9053 17.2727 24.5758 17.5189 24.3409 17.8295C24.1061 18.1326 23.9886 18.5114 23.9886 18.9659C23.9886 19.625 24.2273 20.1288 24.7045 20.4773C25.1894 20.8182 25.803 20.9886 26.5455 20.9886ZM54.392 6.54545L48.2898 24H42.8352L36.733 6.54545H41.8466L45.4716 19.0341H45.6534L49.267 6.54545H54.392Z" fill="#009246"/>
<path d="M61.3778 24.3295C60.2642 24.3295 59.2718 24.1364 58.4006 23.75C57.5294 23.3561 56.84 22.7765 56.3324 22.0114C55.8324 21.2386 55.5824 20.2765 55.5824 19.125C55.5824 18.1553 55.7604 17.3409 56.1165 16.6818C56.4725 16.0227 56.9574 15.4924 57.571 15.0909C58.1847 14.6894 58.8816 14.3864 59.6619 14.1818C60.4498 13.9773 61.2756 13.8333 62.1392 13.75C63.1544 13.6439 63.9725 13.5455 64.5938 13.4545C65.215 13.3561 65.6657 13.2121 65.946 13.0227C66.2263 12.8333 66.3665 12.553 66.3665 12.1818V12.1136C66.3665 11.3939 66.1392 10.8371 65.6847 10.4432C65.2377 10.0492 64.6013 9.85227 63.7756 9.85227C62.9044 9.85227 62.2112 10.0455 61.696 10.4318C61.1809 10.8106 60.84 11.2879 60.6733 11.8636L56.196 11.5C56.4233 10.4394 56.8703 9.52273 57.5369 8.75C58.2036 7.9697 59.0634 7.37121 60.1165 6.95454C61.1771 6.5303 62.4044 6.31818 63.7983 6.31818C64.768 6.31818 65.696 6.43182 66.5824 6.65909C67.4763 6.88636 68.268 7.23864 68.9574 7.71591C69.6544 8.19318 70.2036 8.80682 70.6051 9.55682C71.0066 10.2992 71.2074 11.1894 71.2074 12.2273V24H66.6165V21.5795H66.4801C66.1998 22.125 65.8248 22.6061 65.3551 23.0227C64.8854 23.4318 64.321 23.7538 63.6619 23.9886C63.0028 24.2159 62.2415 24.3295 61.3778 24.3295ZM62.7642 20.9886C63.4763 20.9886 64.1051 20.8485 64.6506 20.5682C65.196 20.2803 65.6241 19.8939 65.9347 19.4091C66.2453 18.9242 66.4006 18.375 66.4006 17.7614V15.9091C66.2491 16.0076 66.0407 16.0985 65.7756 16.1818C65.518 16.2576 65.2263 16.3295 64.9006 16.3977C64.5748 16.4583 64.2491 16.5152 63.9233 16.5682C63.5975 16.6136 63.3021 16.6553 63.0369 16.6932C62.4688 16.7765 61.9725 16.9091 61.5483 17.0909C61.1241 17.2727 60.7945 17.5189 60.5597 17.8295C60.3248 18.1326 60.2074 18.5114 60.2074 18.9659C60.2074 19.625 60.446 20.1288 60.9233 20.4773C61.4081 20.8182 62.0218 20.9886 62.7642 20.9886ZM84.2472 6.54545V10.1818H73.7358V6.54545H84.2472ZM76.1222 2.36364H80.9631V18.6364C80.9631 19.0833 81.0313 19.4318 81.1676 19.6818C81.304 19.9242 81.4934 20.0947 81.7358 20.1932C81.9858 20.2917 82.2737 20.3409 82.5994 20.3409C82.8267 20.3409 83.054 20.322 83.2812 20.2841C83.5085 20.2386 83.6828 20.2045 83.804 20.1818L84.5653 23.7841C84.3229 23.8598 83.982 23.947 83.5426 24.0455C83.1032 24.1515 82.5691 24.2159 81.9403 24.2386C80.7737 24.2841 79.7509 24.1288 78.8722 23.7727C78.0009 23.4167 77.3229 22.8636 76.8381 22.1136C76.3532 21.3636 76.1146 20.4167 76.1222 19.2727V2.36364ZM96.6847 6.54545V10.1818H86.1733V6.54545H96.6847ZM88.5597 2.36364H93.4006V18.6364C93.4006 19.0833 93.4688 19.4318 93.6051 19.6818C93.7415 19.9242 93.9309 20.0947 94.1733 20.1932C94.4233 20.2917 94.7112 20.3409 95.0369 20.3409C95.2642 20.3409 95.4915 20.322 95.7188 20.2841C95.946 20.2386 96.1203 20.2045 96.2415 20.1818L97.0028 23.7841C96.7604 23.8598 96.4195 23.947 95.9801 24.0455C95.5407 24.1515 95.0066 24.2159 94.3778 24.2386C93.2112 24.2841 92.1884 24.1288 91.3097 23.7727C90.4384 23.4167 89.7604 22.8636 89.2756 22.1136C88.7907 21.3636 88.5521 20.4167 88.5597 19.2727V2.36364Z" fill="white"/>
<path d="M107.537 24.3409C105.772 24.3409 104.245 23.9659 102.957 23.2159C101.677 22.4583 100.688 21.4053 99.9915 20.0568C99.2945 18.7008 98.946 17.1288 98.946 15.3409C98.946 13.5379 99.2945 11.9621 99.9915 10.6136C100.688 9.25758 101.677 8.20454 102.957 7.45454C104.245 6.69697 105.772 6.31818 107.537 6.31818C109.302 6.31818 110.825 6.69697 112.105 7.45454C113.393 8.20454 114.385 9.25758 115.082 10.6136C115.779 11.9621 116.128 13.5379 116.128 15.3409C116.128 17.1288 115.779 18.7008 115.082 20.0568C114.385 21.4053 113.393 22.4583 112.105 23.2159C110.825 23.9659 109.302 24.3409 107.537 24.3409ZM107.56 20.5909C108.363 20.5909 109.033 20.3636 109.571 19.9091C110.109 19.447 110.514 18.8182 110.787 18.0227C111.067 17.2273 111.207 16.322 111.207 15.3068C111.207 14.2917 111.067 13.3864 110.787 12.5909C110.514 11.7955 110.109 11.1667 109.571 10.7045C109.033 10.2424 108.363 10.0114 107.56 10.0114C106.749 10.0114 106.067 10.2424 105.514 10.7045C104.969 11.1667 104.556 11.7955 104.276 12.5909C104.003 13.3864 103.866 14.2917 103.866 15.3068C103.866 16.322 104.003 17.2273 104.276 18.0227C104.556 18.8182 104.969 19.447 105.514 19.9091C106.067 20.3636 106.749 20.5909 107.56 20.5909ZM124.116 13.9091V24H119.276V6.54545H123.889V9.625H124.094C124.48 8.60985 125.128 7.80682 126.037 7.21591C126.946 6.61742 128.048 6.31818 129.344 6.31818C130.556 6.31818 131.613 6.58333 132.514 7.11364C133.416 7.64394 134.116 8.40151 134.616 9.38636C135.116 10.3636 135.366 11.5303 135.366 12.8864V24H130.526V13.75C130.533 12.6818 130.26 11.8485 129.707 11.25C129.154 10.6439 128.393 10.3409 127.423 10.3409C126.772 10.3409 126.196 10.4811 125.696 10.7614C125.204 11.0417 124.817 11.4508 124.537 11.9886C124.264 12.5189 124.124 13.1591 124.116 13.9091ZM147.136 24.3409C145.341 24.3409 143.795 23.9773 142.5 23.25C141.212 22.5152 140.22 21.4773 139.523 20.1364C138.826 18.7879 138.477 17.1932 138.477 15.3523C138.477 13.5568 138.826 11.9811 139.523 10.625C140.22 9.26894 141.201 8.21212 142.466 7.45454C143.739 6.69697 145.231 6.31818 146.943 6.31818C148.095 6.31818 149.167 6.50379 150.159 6.875C151.159 7.23864 152.03 7.78788 152.773 8.52273C153.523 9.25758 154.106 10.1818 154.523 11.2955C154.939 12.4015 155.148 13.697 155.148 15.1818V16.5114H140.409V13.5114H150.591C150.591 12.8144 150.439 12.197 150.136 11.6591C149.833 11.1212 149.413 10.7008 148.875 10.3977C148.345 10.0871 147.727 9.93182 147.023 9.93182C146.288 9.93182 145.636 10.1023 145.068 10.4432C144.508 10.7765 144.068 11.2273 143.75 11.7955C143.432 12.3561 143.269 12.9811 143.261 13.6705V16.5227C143.261 17.3864 143.42 18.1326 143.739 18.7614C144.064 19.3902 144.523 19.875 145.114 20.2159C145.705 20.5568 146.405 20.7273 147.216 20.7273C147.754 20.7273 148.246 20.6515 148.693 20.5C149.14 20.3485 149.523 20.1212 149.841 19.8182C150.159 19.5152 150.402 19.1439 150.568 18.7045L155.045 19C154.818 20.0758 154.352 21.0152 153.648 21.8182C152.951 22.6136 152.049 23.2348 150.943 23.6818C149.845 24.1212 148.576 24.3409 147.136 24.3409Z" fill="#CE2B37"/>
</svg>
